<svg width="142" height="36" viewBox="0 0 142 36" fill="none" xmlns="http://www.w3.org/2000/svg">
<path d="M60.2432 15.6289C60.2432 15.0698 60.7402 14.7592 61.5478 14.7592C62.5729 14.7592 63.1941 15.3183 63.629 16.1259L67.605 13.9826C66.3004 11.7772 64.0639 10.6589 61.5478 10.6589C58.3173 10.6589 55.4596 12.3674 55.4596 15.7532C55.4596 21.127 63.1009 20.2262 63.1009 21.9346C63.1009 22.5559 62.5418 22.8976 61.4236 22.8976C60.0568 22.8976 59.1871 22.2452 58.7832 21.0649L54.7451 23.3635C55.9566 25.8796 58.3173 27.0599 61.4236 27.0599C64.7783 27.0599 67.8846 25.5379 67.8846 21.9657C67.8846 16.2191 60.2432 17.3995 60.2432 15.6289Z" fill="white"/>
<path d="M79.6502 10.6589C77.569 10.6589 76.047 11.3734 75.0219 12.5537V11.0938H70.3625V32.8376H75.0219V25.1651C76.047 26.3455 77.569 27.0599 79.6502 27.0599C83.7194 27.0599 87.0741 23.4877 87.0741 18.8594C87.0741 14.2311 83.7194 10.6589 79.6502 10.6589ZM78.7183 22.6491C76.575 22.6491 75.0219 21.1891 75.0219 18.8594C75.0219 16.5297 76.575 15.0698 78.7183 15.0698C80.8616 15.0698 82.4148 16.5297 82.4148 18.8594C82.4148 21.1891 80.8616 22.6491 78.7183 22.6491Z" fill="white"/>
<path d="M100.992 11.0938V12.5537C99.9665 11.3734 98.4445 10.6589 96.3633 10.6589C92.2941 10.6589 88.9394 14.2311 88.9394 18.8594C88.9394 23.4877 92.2941 27.0599 96.3633 27.0599C98.4445 27.0599 99.9665 26.3455 100.992 25.1651V26.6251H105.651V11.0938H100.992ZM97.2952 22.6491C95.1518 22.6491 93.5987 21.1891 93.5987 18.8594C93.5987 16.5297 95.1518 15.0698 97.2952 15.0698C99.4385 15.0698 100.992 16.5297 100.992 18.8594C100.992 21.1891 99.4385 22.6491 97.2952 22.6491Z" fill="white"/>
<path d="M116.524 27.0599C119.568 27.0599 122.209 25.4757 123.544 23.0529L119.475 20.7232C118.978 21.8104 117.829 22.4627 116.462 22.4627C114.443 22.4627 112.952 21.0027 112.952 18.8594C112.952 16.7161 114.443 15.2562 116.462 15.2562C117.829 15.2562 118.947 15.9085 119.475 16.9957L123.544 14.6349C122.209 12.2431 119.537 10.6589 116.524 10.6589C111.803 10.6589 108.293 14.2311 108.293 18.8594C108.293 23.4877 111.803 27.0599 116.524 27.0599Z" fill="white"/>
<path d="M129.279 20.7232H140.306C140.43 20.133 140.492 19.5117 140.492 18.8594C140.492 14.169 137.137 10.6589 132.602 10.6589C127.694 10.6589 124.34 14.2311 124.34 18.8594C124.34 23.4877 127.632 27.0599 132.944 27.0599C135.895 27.0599 138.194 25.9727 139.716 23.8605L135.988 21.7172C135.367 22.4006 134.28 22.8976 133.006 22.8976C131.298 22.8976 129.869 22.3384 129.279 20.7232ZM129.185 17.2442C129.62 15.66 130.801 14.7902 132.571 14.7902C133.969 14.7902 135.367 15.4426 135.864 17.2442H129.185Z" fill="white"/>
<path d="M17.1781 32.2035H37.3641C42.1599 32.2035 45.9706 28.2109 45.9706 23.3823C45.9707 18.5536 42.1599 14.561 37.3641 14.561H33.2622C32.2915 14.561 31.4276 13.7372 31.4276 12.6247C31.4276 11.5121 32.2915 10.6883 33.2622 10.6883H42.3406L46.35 3.80347H33.2622C28.4665 3.80347 24.6557 7.79599 24.6557 12.6247C24.6557 17.4534 28.4665 21.4459 33.2622 21.4459H37.3641C38.3349 21.4459 39.1988 22.2697 39.1988 23.3822C39.1988 24.4948 38.3349 25.3186 37.3641 25.3186H21.1552L19.3439 22.0169C22.1681 20.3098 24.0442 17.1618 24.0442 13.5852C24.0442 8.22602 19.816 3.80347 14.5054 3.80347H1.26807L5.166 10.6883H14.5054C15.991 10.6883 17.2723 11.9422 17.2723 13.5852C17.2723 15.2282 15.991 16.482 14.5054 16.482H8.44619L17.1781 32.2035Z" fill="#7B61FF"/>
</svg>
