<svg width="24" height="24" viewBox="0 0 24 24" fill="none" xmlns="http://www.w3.org/2000/svg">
<g id="twitter 1">
<path id="_x30_4.Twitter" d="M22.3902 5.54162C21.6091 5.88009 20.802 6.11441 19.9428 6.21856C20.828 5.69784 21.505 4.86469 21.8174 3.8493C20.9842 4.34398 20.073 4.68244 19.1097 4.89073C18.3286 4.05758 17.2091 3.53687 15.9854 3.53687C13.6161 3.53687 11.7155 5.46352 11.7155 7.80674C11.7155 8.14521 11.7415 8.45764 11.8196 8.77007C8.27877 8.61385 5.15447 6.89549 3.04557 4.31794C1.53549 7.02567 3.22782 9.26475 4.34736 10.0198C3.67043 10.0198 2.99349 9.8115 2.42071 9.49907C2.42071 11.608 3.90475 13.3524 5.8314 13.7429C5.41483 13.8731 4.47754 13.9512 3.90475 13.821C4.4515 15.5133 6.03969 16.7631 7.88823 16.7891C6.43022 17.9347 4.29529 18.8459 1.56152 18.5595C3.46214 19.7832 5.70122 20.4862 8.12255 20.4862C15.9854 20.4862 20.2552 13.9772 20.2552 8.35349C20.2552 8.17124 20.2552 7.98899 20.2292 7.80674C21.1144 7.15585 21.8434 6.40081 22.3902 5.54162Z" fill="white"/>
</g>
</svg>
